<svg id="Warstwa_1" data-name="Warstwa 1" xmlns="http://www.w3.org/2000/svg" viewBox="0 0 147.14 23.65"><defs><style>.cls-1{fill:#1d1d1b;}.cls-2{fill:#fff;}</style></defs><rect class="cls-1" y="8.34" width="147.11" height="15.32"/><path class="cls-1" d="M165.75,181.66l4.2-8.16h4.47l4.19,8.16h-3.68l-.61-1.16H170l-.6,1.16Zm5.32-3.51h2.23l-1.11-2.43Z" transform="translate(-165.72 -173.32)"/><path class="cls-1" d="M186.54,181.66H179V173.5h7.55a4.08,4.08,0,1,1,0,8.16Zm.89-4.08c0-1-.41-1.49-1.32-1.49h-3.57v3h3.57C187,179.07,187.43,178.55,187.43,177.58Z" transform="translate(-165.72 -173.32)"/><path class="cls-1" d="M198.84,181.66h-7.55V173.5h7.55a4.08,4.08,0,1,1,0,8.16Zm.89-4.08c0-1-.41-1.49-1.32-1.49h-3.57v3h3.57C199.32,179.07,199.73,178.55,199.73,177.58Z" transform="translate(-165.72 -173.32)"/><path class="cls-1" d="M212.07,178.54l-4.26-5h4l2,2.49,2-2.49h4l-4.26,5v3.12h-3.54Z" transform="translate(-165.72 -173.32)"/><path class="cls-1" d="M227.45,181.84H223.2a4.26,4.26,0,0,1,0-8.5h4.25c2.06,0,3.92,1.35,3.92,4.24S229.51,181.84,227.45,181.84Zm-.7-2.47c.92,0,1.55-.33,1.55-1.79s-.63-1.79-1.55-1.79H223.9c-.92,0-1.59.34-1.59,1.79s.55,1.79,1.59,1.79Z" transform="translate(-165.72 -173.32)"/><path class="cls-1" d="M237,179.25h1.74c.9,0,1.47-.58,1.47-1.67V173.5h3.53v4.08a4,4,0,0,1-4.1,4.26h-3.55a4,4,0,0,1-4.1-4.26V173.5h3.53v4.08C235.56,178.67,236.13,179.25,237,179.25Z" transform="translate(-165.72 -173.32)"/><path class="cls-1" d="M249.8,179.44h-1.7v2.22h-3.54V173.5h7.37c2.06,0,3.88.1,3.88,3.09a2.31,2.31,0,0,1-2.25,2.64l2.33,2.43h-4.11Zm-1.7-2.37h3.51c.91,0,1.11,0,1.11-.48s-.2-.5-1.11-.5H248.1Z" transform="translate(-165.72 -173.32)"/><path class="cls-1" d="M264.67,181.66h-3.55V173.5h10.19v2.42h-6.64v.71h6.08v1.91h-6.08Z" transform="translate(-165.72 -173.32)"/><path class="cls-1" d="M272,173.5h3.53v8.16H272Z" transform="translate(-165.72 -173.32)"/><path class="cls-1" d="M281.56,179.44h-1.7v2.22h-3.55V173.5h7.38c2.06,0,3.88.1,3.88,3.09a2.31,2.31,0,0,1-2.25,2.64l2.32,2.43h-4.11Zm-1.7-2.37h3.51c.91,0,1.1,0,1.1-.48s-.19-.5-1.1-.5h-3.51Z" transform="translate(-165.72 -173.32)"/><path class="cls-1" d="M300.3,179c0,2.25-1.49,2.81-3.39,2.81h-5.28c-2.47,0-3.45-1-3.45-3.06h3.38c0,.46.53.47.95.47h4.13c.33,0,.45-.13.45-.46s-.15-.32-.47-.32c-1.66,0-3.39-.08-5.05-.13-2.11,0-3.38-.43-3.38-2.23,0-2.24,1.49-2.81,3.39-2.81h5.1c2.46,0,3.43,1,3.43,3.06h-3.37c0-.46-.52-.48-.95-.48h-3.94c-.33,0-.45.12-.45.46s.12.3.45.3c1.66,0,3.38.08,5.06.13C299,176.79,300.3,177.25,300.3,179Z" transform="translate(-165.72 -173.32)"/><path class="cls-1" d="M312.86,176.18h-4.25v5.48h-3.54v-5.48h-4.24V173.5h12Z" transform="translate(-165.72 -173.32)"/><path class="cls-2" d="M184.56,187l-3.34,8.05h-4l-1.72-4-1.73,4h-4L166.43,187h3.76l1.55,4.75,1.95-4.75h3.61l1.94,4.75,1.57-4.75Z" transform="translate(-165.72 -173.32)"/><path class="cls-2" d="M192.28,195.23H188.1c-2,0-3.9-1.34-3.9-4.2s1.88-4.2,3.9-4.2h4.18c2,0,3.85,1.34,3.85,4.2S194.31,195.23,192.28,195.23Zm-.68-2.44c.9,0,1.51-.32,1.51-1.76s-.61-1.77-1.51-1.77h-2.81c-.9,0-1.56.33-1.56,1.77s.54,1.76,1.56,1.76Z" transform="translate(-165.72 -173.32)"/><path class="cls-2" d="M202,192.86h-1.67v2.19h-3.48V187h7.24c2,0,3.82.1,3.82,3a2.28,2.28,0,0,1-2.22,2.61l2.29,2.4h-4Zm-1.67-2.34h3.44c.9,0,1.09,0,1.09-.48s-.19-.48-1.09-.48h-3.44Z" transform="translate(-165.72 -173.32)"/><path class="cls-2" d="M216.25,195.06l-2.5-2.68-1.67,1.39v1.28h-3.47V187h3.47v3.26l3.83-3.25h4.29L216,190.54l4.38,4.52Z" transform="translate(-165.72 -173.32)"/><path class="cls-2" d="M227.65,195.23h-4.18a4.21,4.21,0,0,1,0-8.4h4.18c2,0,3.84,1.34,3.84,4.2S229.67,195.23,227.65,195.23Zm-.69-2.44c.9,0,1.51-.32,1.51-1.76s-.61-1.77-1.51-1.77h-2.81c-.9,0-1.56.33-1.56,1.77s.54,1.76,1.56,1.76Z" transform="translate(-165.72 -173.32)"/><path class="cls-2" d="M237.06,192.67h1.71c.89,0,1.44-.57,1.44-1.64v-4h3.47v4a3.91,3.91,0,0,1-4,4.2h-3.5a3.91,3.91,0,0,1-4-4.2v-4h3.47v4C235.61,192.1,236.16,192.67,237.06,192.67Z" transform="translate(-165.72 -173.32)"/><path class="cls-2" d="M256.26,189.64h-4.18v5.41h-3.47v-5.41h-4.16V187h11.81Z" transform="translate(-165.72 -173.32)"/><path class="cls-2" d="M259.42,195.05H257v-2.51h2.39Z" transform="translate(-165.72 -173.32)"/><path class="cls-2" d="M262.58,195.05h-2.39v-2.51h2.39Z" transform="translate(-165.72 -173.32)"/><path class="cls-2" d="M265.74,195.05h-2.39v-2.51h2.39Z" transform="translate(-165.72 -173.32)"/><path class="cls-2" d="M270,195.05h-3.47V187h3.9l4.35,4.12V187h3.48v8.05h-3.63L270,190.36Z" transform="translate(-165.72 -173.32)"/><path class="cls-2" d="M287,195.23h-4.18c-2,0-3.9-1.34-3.9-4.2s1.88-4.2,3.9-4.2H287c2,0,3.85,1.34,3.85,4.2S289,195.23,287,195.23Zm-.68-2.44c.9,0,1.51-.32,1.51-1.76s-.61-1.77-1.51-1.77h-2.81c-.9,0-1.56.33-1.56,1.77s.54,1.76,1.56,1.76Z" transform="translate(-165.72 -173.32)"/><path class="cls-2" d="M308.53,187l-3.34,8.05h-4l-1.72-4-1.73,4h-4L290.4,187h3.75l1.56,4.75,2-4.75h3.61l1.94,4.75,1.57-4.75Z" transform="translate(-165.72 -173.32)"/><path class="cls-2" d="M309.53,192.21l-.18-5.2h3.21l-.18,5.2Zm2.85.42v2.48h-2.85v-2.48Z" transform="translate(-165.72 -173.32)"/></svg>