<svg id="Warstwa_1" data-name="Warstwa 1" xmlns="http://www.w3.org/2000/svg" viewBox="0 0 443.33 142.3"><defs><style>.cls-1{fill:#fff;}.cls-1,.cls-2{stroke:#fff;stroke-miterlimit:10;}.cls-2{fill:#1d1d1b;}</style></defs><circle class="cls-1" cx="372.75" cy="70.6" r="70.09"/><path class="cls-1" d="M196.25,398.44c0-4,1.85-4.92,4.36-4.92h7.82c2.51,0,4.22.92,4.22,4.92s-1.71,4.92-4.22,4.92h-7.82C197.77,403.36,196.25,402.46,196.25,398.44Z" transform="translate(-87.58 -342.15)"/><path class="cls-1" d="M242.35,394.34h-9.6V397h9.6c2.51,0,3-.07,3-1.32S244.86,394.34,242.35,394.34Zm0,0h-9.6V397h9.6c2.51,0,3-.07,3-1.32S244.86,394.34,242.35,394.34Zm0,0h-9.6V397h9.6c2.51,0,3-.07,3-1.32S244.86,394.34,242.35,394.34Zm64.68-.82h-7.82c-2.51,0-4.36.92-4.36,4.92s1.52,4.92,4.36,4.92H307c2.51,0,4.23-.9,4.23-4.92S309.54,393.52,307,393.52Zm-64.68.82h-9.6V397h9.6c2.51,0,3-.07,3-1.32S244.86,394.34,242.35,394.34Zm64.68-.82h-7.82c-2.51,0-4.36.92-4.36,4.92s1.52,4.92,4.36,4.92H307c2.51,0,4.23-.9,4.23-4.92S309.54,393.52,307,393.52Zm-64.68.82h-9.6V397h9.6c2.51,0,3-.07,3-1.32S244.86,394.34,242.35,394.34Zm64.68-.82h-7.82c-2.51,0-4.36.92-4.36,4.92s1.52,4.92,4.36,4.92H307c2.51,0,4.23-.9,4.23-4.92S309.54,393.52,307,393.52Zm-64.68.82h-9.6V397h9.6c2.51,0,3-.07,3-1.32S244.86,394.34,242.35,394.34Zm64.68-.82h-7.82c-2.51,0-4.36.92-4.36,4.92s1.52,4.92,4.36,4.92H307c2.51,0,4.23-.9,4.23-4.92S309.54,393.52,307,393.52Zm-64.68.82h-9.6V397h9.6c2.51,0,3-.07,3-1.32S244.86,394.34,242.35,394.34Zm33.28,39.6H265.57v2.68h10.06c2.51,0,3-.07,3-1.32S278.14,433.94,275.63,433.94ZM307,393.52h-7.82c-2.51,0-4.36.92-4.36,4.92s1.52,4.92,4.36,4.92H307c2.51,0,4.23-.9,4.23-4.92S309.54,393.52,307,393.52Zm1.67,40.42H298.63v2.68H308.7c2.51,0,3-.07,3-1.32S311.21,433.94,308.7,433.94Zm0,0H298.63v2.68H308.7c2.51,0,3-.07,3-1.32S311.21,433.94,308.7,433.94Zm-33.07,0H265.57v2.68h10.06c2.51,0,3-.07,3-1.32S278.14,433.94,275.63,433.94Zm-33.28-39.6h-9.6V397h9.6c2.51,0,3-.07,3-1.32S244.86,394.34,242.35,394.34Zm64.68-.82h-7.82c-2.51,0-4.36.92-4.36,4.92s1.52,4.92,4.36,4.92H307c2.51,0,4.23-.9,4.23-4.92S309.54,393.52,307,393.52ZM464.7,456.39l-.32-87.31-.1-26.3v-.13l-3.93,0h-.28l-300.62,1.1H157.9l.17,44.5.43-1.06h10.07L174,400.45l4.36-13.23H188.8l-9.31,22.44H168.34l-4.79-11.22-4.82,11.22h-.59l.28,74.27v0l301.67-1.11h4.71v-.12ZM297.3,386.75H309c5.64,0,10.72,3.73,10.72,11.69s-5.08,11.71-10.72,11.71H297.3c-5.65,0-10.9-3.73-10.9-11.71S291.65,386.75,297.3,386.75Zm-74.26.47h20.2c5.65,0,10.63.26,10.63,8.48,0,4.82-2.28,6.73-6.17,7.26l6.37,6.7H242.81l-5.41-6.11h-4.65v6.11H223Zm-24.35-.47h11.65c5.65,0,10.73,3.73,10.73,11.69s-5.08,11.71-10.73,11.71H198.69c-5.64,0-10.89-3.73-10.89-11.71S193.05,386.75,198.69,386.75Zm46,62.51-1.65-3.2H231.35l-1.65,3.2H219.6l11.48-22.44h12.25l11.48,22.44Zm31.19-5.51H265.57v5.51h-9.71V426.82h20c5.64,0,11.22.26,11.22,8.48S281.54,443.75,275.9,443.75Zm1.27-34.06-7-7.49-4.65,3.89v3.57h-9.67V387.22h9.67v9.07l10.66-9,5.31,0,6.67,0-11.85,9.83,12.21,12.61ZM309,443.75H298.63v5.51h-9.7V426.82h20c5.65,0,11.22.26,11.22,8.48S314.61,443.75,309,443.75Zm44.7-45.31c0,8-5.57,11.71-11.22,11.71h-9.73c-5.65,0-11.23-3.73-11.23-11.71V387.22h9.67v11.22c0,3,1.56,4.59,4.06,4.59H340c2.47,0,4-1.59,4-4.59V387.22h9.67Zm35.08-3.86H377.09v15.08h-9.67V394.58c-4.95,0-9.37,0-11.62,0v-7.39h32.94Zm-80,39.36H298.63v2.68H308.7c2.51,0,3-.07,3-1.32S311.21,433.94,308.7,433.94Zm-9.49-30.58H307c2.51,0,4.23-.9,4.23-4.92s-1.72-4.92-4.23-4.92h-7.82c-2.51,0-4.36.92-4.36,4.92S296.37,403.36,299.21,403.36Zm-23.58,30.58H265.57v2.68h10.06c2.51,0,3-.07,3-1.32S278.14,433.94,275.63,433.94ZM245.39,395.7c0-1.29-.53-1.36-3-1.36h-9.6V397h9.6C244.86,397,245.39,397,245.39,395.7Zm-11.24,43.89h6.11l-3-6.67ZM307,393.52h-7.82c-2.51,0-4.36.92-4.36,4.92s1.52,4.92,4.36,4.92H307c2.51,0,4.23-.9,4.23-4.92S309.54,393.52,307,393.52Zm-64.68.82h-9.6V397h9.6c2.51,0,3-.07,3-1.32S244.86,394.34,242.35,394.34Zm66.35,39.6H298.63v2.68H308.7c2.51,0,3-.07,3-1.32S311.21,433.94,308.7,433.94Zm0,0H298.63v2.68H308.7c2.51,0,3-.07,3-1.32S311.21,433.94,308.7,433.94ZM307,393.52h-7.82c-2.51,0-4.36.92-4.36,4.92s1.52,4.92,4.36,4.92H307c2.51,0,4.23-.9,4.23-4.92S309.54,393.52,307,393.52Zm-64.68.82h-9.6V397h9.6c2.51,0,3-.07,3-1.32S244.86,394.34,242.35,394.34Zm64.68-.82h-7.82c-2.51,0-4.36.92-4.36,4.92s1.52,4.92,4.36,4.92H307c2.51,0,4.23-.9,4.23-4.92S309.54,393.52,307,393.52Zm-64.68.82h-9.6V397h9.6c2.51,0,3-.07,3-1.32S244.86,394.34,242.35,394.34Zm64.68-.82h-7.82c-2.51,0-4.36.92-4.36,4.92s1.52,4.92,4.36,4.92H307c2.51,0,4.23-.9,4.23-4.92S309.54,393.52,307,393.52Zm-64.68.82h-9.6V397h9.6c2.51,0,3-.07,3-1.32S244.86,394.34,242.35,394.34Zm0,0h-9.6V397h9.6c2.51,0,3-.07,3-1.32S244.86,394.34,242.35,394.34Zm0,0h-9.6V397h9.6c2.51,0,3-.07,3-1.32S244.86,394.34,242.35,394.34Zm0,0h-9.6V397h9.6c2.51,0,3-.07,3-1.32S244.86,394.34,242.35,394.34Zm0,0h-9.6V397h9.6c2.51,0,3-.07,3-1.32S244.86,394.34,242.35,394.34Z" transform="translate(-87.58 -342.15)"/><path class="cls-1" d="M208.43,393.52h-7.82c-2.51,0-4.36.92-4.36,4.92s1.52,4.92,4.36,4.92h7.82c2.51,0,4.22-.9,4.22-4.92S210.94,393.52,208.43,393.52Zm0,0h-7.82c-2.51,0-4.36.92-4.36,4.92s1.52,4.92,4.36,4.92h7.82c2.51,0,4.22-.9,4.22-4.92S210.94,393.52,208.43,393.52Zm0,0h-7.82c-2.51,0-4.36.92-4.36,4.92s1.52,4.92,4.36,4.92h7.82c2.51,0,4.22-.9,4.22-4.92S210.94,393.52,208.43,393.52Zm0,0h-7.82c-2.51,0-4.36.92-4.36,4.92s1.52,4.92,4.36,4.92h7.82c2.51,0,4.22-.9,4.22-4.92S210.94,393.52,208.43,393.52Zm0,0h-7.82c-2.51,0-4.36.92-4.36,4.92s1.52,4.92,4.36,4.92h7.82c2.51,0,4.22-.9,4.22-4.92S210.94,393.52,208.43,393.52Zm0,0h-7.82c-2.51,0-4.36.92-4.36,4.92s1.52,4.92,4.36,4.92h7.82c2.51,0,4.22-.9,4.22-4.92S210.94,393.52,208.43,393.52Zm0,0h-7.82c-2.51,0-4.36.92-4.36,4.92s1.52,4.92,4.36,4.92h7.82c2.51,0,4.22-.9,4.22-4.92S210.94,393.52,208.43,393.52Zm0,0h-7.82c-2.51,0-4.36.92-4.36,4.92s1.52,4.92,4.36,4.92h7.82c2.51,0,4.22-.9,4.22-4.92S210.94,393.52,208.43,393.52Zm0,0h-7.82c-2.51,0-4.36.92-4.36,4.92s1.52,4.92,4.36,4.92h7.82c2.51,0,4.22-.9,4.22-4.92S210.94,393.52,208.43,393.52Zm0,0h-7.82c-2.51,0-4.36.92-4.36,4.92s1.52,4.92,4.36,4.92h7.82c2.51,0,4.22-.9,4.22-4.92S210.94,393.52,208.43,393.52Zm19.7,16.14H223V387.31a70.11,70.11,0,0,0-63.59-43.54H157.9a70.09,70.09,0,1,0,70.35,69.83Q228.24,411.61,228.13,409.66Zm-59.79,0-4.79-11.22-4.82,11.22H147.58l-9.31-22.44h10.46l4.32,13.23,5-12.17.43-1.06h10.07L174,400.45l4.36-13.23H188.8l-9.31,22.44Zm42,.49H198.69c-5.64,0-10.89-3.73-10.89-11.71s5.25-11.69,10.89-11.69h11.65c5.65,0,10.73,3.73,10.73,11.69S216,410.15,210.34,410.15Zm-1.91-16.63h-7.82c-2.51,0-4.36.92-4.36,4.92s1.52,4.92,4.36,4.92h7.82c2.51,0,4.22-.9,4.22-4.92S210.94,393.52,208.43,393.52Zm0,0h-7.82c-2.51,0-4.36.92-4.36,4.92s1.52,4.92,4.36,4.92h7.82c2.51,0,4.22-.9,4.22-4.92S210.94,393.52,208.43,393.52Zm0,0h-7.82c-2.51,0-4.36.92-4.36,4.92s1.52,4.92,4.36,4.92h7.82c2.51,0,4.22-.9,4.22-4.92S210.94,393.52,208.43,393.52Zm0,0h-7.82c-2.51,0-4.36.92-4.36,4.92s1.52,4.92,4.36,4.92h7.82c2.51,0,4.22-.9,4.22-4.92S210.94,393.52,208.43,393.52Zm0,0h-7.82c-2.51,0-4.36.92-4.36,4.92s1.52,4.92,4.36,4.92h7.82c2.51,0,4.22-.9,4.22-4.92S210.94,393.52,208.43,393.52Zm0,0h-7.82c-2.51,0-4.36.92-4.36,4.92s1.52,4.92,4.36,4.92h7.82c2.51,0,4.22-.9,4.22-4.92S210.94,393.52,208.43,393.52Zm0,0h-7.82c-2.51,0-4.36.92-4.36,4.92s1.52,4.92,4.36,4.92h7.82c2.51,0,4.22-.9,4.22-4.92S210.94,393.52,208.43,393.52Zm0,0h-7.82c-2.51,0-4.36.92-4.36,4.92s1.52,4.92,4.36,4.92h7.82c2.51,0,4.22-.9,4.22-4.92S210.94,393.52,208.43,393.52Zm0,0h-7.82c-2.51,0-4.36.92-4.36,4.92s1.52,4.92,4.36,4.92h7.82c2.51,0,4.22-.9,4.22-4.92S210.94,393.52,208.43,393.52Z" transform="translate(-87.58 -342.15)"/><circle class="cls-2" cx="376.96" cy="70.59" r="43.66"/></svg>