<svg xmlns="http://www.w3.org/2000/svg" viewBox="0 0 91.57 19.64"><defs><style>.cls-1{fill:#1d1d1b;}.cls-2,.cls-3{fill:#fff;}.cls-3{font-size:4.9px;font-family:BrigendsExpanded, Brigends Expanded;}</style></defs><g id="Warstwa_2" data-name="Warstwa 2"><g id="Warstwa_1-2" data-name="Warstwa 1"><path class="cls-1" d="M18.36.17,15,8.32H10.93L9.19,4.25,7.44,8.32H3.38L0,.17H3.8L5.37,5l2-4.81H11L13,5,14.56.17Z"/><path class="cls-1" d="M26.2,8.5H22a3.87,3.87,0,0,1-4-4.25A3.87,3.87,0,0,1,22,0H26.2c2.05,0,3.9,1.35,3.9,4.25S28.25,8.5,26.2,8.5ZM25.51,6C26.42,6,27,5.71,27,4.25s-.62-1.79-1.53-1.79H22.67c-.92,0-1.59.33-1.59,1.79S21.63,6,22.67,6Z"/><path class="cls-1" d="M36,6.1H34.35V8.32H30.83V.17h7.34c2,0,3.86.09,3.86,3.08a2.3,2.3,0,0,1-2.24,2.64L42.1,8.32H38ZM34.35,3.73h3.49c.92,0,1.11,0,1.11-.48s-.19-.49-1.11-.49H34.35Z"/><path class="cls-1" d="M50.5,8.34,48,5.61,46.28,7V8.32H42.77V.17h3.51v3.3L50.16.18h4.35L50.2,3.75l4.44,4.59Z"/><path class="cls-1" d="M62.06,8.5H57.83c-2.06,0-4-1.35-4-4.25S55.77,0,57.83,0h4.23c2,0,3.9,1.35,3.9,4.25S64.11,8.5,62.06,8.5ZM61.36,6c.91,0,1.54-.32,1.54-1.78s-.63-1.79-1.54-1.79H58.52c-.91,0-1.58.33-1.58,1.79S57.49,6,58.52,6Z"/><path class="cls-1" d="M71.61,5.91h1.73c.9,0,1.46-.57,1.46-1.66V.17h3.52V4.25A4,4,0,0,1,74.24,8.5H70.7a4,4,0,0,1-4.08-4.25V.17h3.52V4.25C70.14,5.34,70.7,5.91,71.61,5.91Z"/><path class="cls-1" d="M91.07,2.84H86.84V8.32H83.33V2.84H79.1V.17h12Z"/><rect class="cls-1" x="5.29" y="10.88" width="44.23" height="8.77"/><circle class="cls-1" cx="5.29" cy="15.26" r="4.36"/><circle class="cls-1" cx="49.53" cy="15.26" r="4.36"/><circle class="cls-2" cx="6.65" cy="15.26" r="3"/><text class="cls-3" transform="translate(12.41 17.07) scale(0.69 1)">BE STRONGER</text><path class="cls-1" d="M55,19.62l4.18-8.15h4.45l4.17,8.15H64.13l-.6-1.16H59.27l-.59,1.16Zm5.29-3.51h2.22l-1.1-2.43Z"/><path class="cls-1" d="M71.72,19.62H68.19V11.47h7.28c2,0,4.08.09,4.08,3.08s-2,3.07-4.08,3.07H71.72Zm0-4.59h3.66c.91,0,1.1,0,1.1-.48s-.19-.49-1.1-.49H71.72Z"/><path class="cls-1" d="M83.74,19.62H80.22V11.47H87.5c2,0,4.07.09,4.07,3.08s-2,3.07-4.07,3.07H83.74Zm0-4.59H87.4c.91,0,1.1,0,1.1-.48s-.19-.49-1.1-.49H83.74Z"/></g></g></svg>