<svg id="Warstwa_1" data-name="Warstwa 1" xmlns="http://www.w3.org/2000/svg" viewBox="0 0 372.06 81.78"><defs><style>.cls-1{fill:#1d1d1b;}.cls-2{fill:#fff;}</style></defs><path class="cls-1" d="M92.6,216.85h12.77c8.4,0,13.4,4.07,14.11,10.71H108.9c-.46-1-1-1.68-4.75-1.68H94.62c-3.2,0-5.17,2-5.17,5.84s2,5.84,5.17,5.84h8c1.51,0,4.37-.51,5.55-2.19H99v-6.05h20.5V246h-7.77l-1.14-3.15c-1.38,2.18-4.49,3.78-9.07,3.78h-9c-7.18,0-14.28-4.33-14.28-14.91C78.32,221.59,85.42,216.85,92.6,216.85Z" transform="translate(-76.87 -216.85)"/><path class="cls-1" d="M151.49,246.63H136.66c-7.19,0-13.86-4.75-13.86-14.91s6.67-14.87,13.86-14.87h14.83c7.18,0,13.65,4.74,13.65,14.87S158.67,246.63,151.49,246.63ZM149.05,238c3.19,0,5.38-1.14,5.38-6.26s-2.19-6.26-5.38-6.26h-10c-3.19,0-5.54,1.17-5.54,6.26s1.93,6.26,5.54,6.26Z" transform="translate(-76.87 -216.85)"/><path class="cls-1" d="M196.68,246.63H181.85c-7.18,0-13.86-4.75-13.86-14.91s6.68-14.87,13.86-14.87h14.83c7.18,0,13.65,4.74,13.65,14.87S203.86,246.63,196.68,246.63ZM194.24,238c3.19,0,5.38-1.14,5.38-6.26s-2.19-6.26-5.38-6.26h-10c-3.2,0-5.55,1.17-5.55,6.26s1.93,6.26,5.55,6.26Z" transform="translate(-76.87 -216.85)"/><path class="cls-1" d="M239.48,246h-26.3V217.44h26.3c7.18,0,14.28,4.15,14.28,14.28S246.66,246,239.48,246Zm3.1-14.28c0-3.41-1.42-5.21-4.62-5.21H225.53v10.42H238C241.16,236.93,242.58,235.12,242.58,231.72Z" transform="translate(-76.87 -216.85)"/><path class="cls-1" d="M285,232.1c0,1.63,1.09,5,4.62,5h3.69c3.16,0,5.13-2,5.13-5.42V217.44h12.31v14.28c0,10.16-7.06,14.49-14.28,14.91h-8.87c-7.6,0-14.87-5.63-14.87-14.53Z" transform="translate(-76.87 -216.85)"/><path class="cls-1" d="M342.25,246.63H327.42c-7.18,0-13.86-4.75-13.86-14.91s6.68-14.87,13.86-14.87h14.83c7.18,0,13.65,4.74,13.65,14.87S349.43,246.63,342.25,246.63ZM339.81,238c3.2,0,5.38-1.14,5.38-6.26s-2.18-6.26-5.38-6.26h-9.95c-3.19,0-5.55,1.17-5.55,6.26s1.94,6.26,5.55,6.26Z" transform="translate(-76.87 -216.85)"/><path class="cls-1" d="M387.44,246.63H372.61c-7.18,0-13.86-4.75-13.86-14.91s6.68-14.87,13.86-14.87h14.83c7.18,0,13.65,4.74,13.65,14.87S394.62,246.63,387.44,246.63ZM385,238c3.2,0,5.38-1.14,5.38-6.26s-2.18-6.26-5.38-6.26h-9.95c-3.19,0-5.55,1.17-5.55,6.26s1.94,6.26,5.55,6.26Z" transform="translate(-76.87 -216.85)"/><path class="cls-1" d="M403.94,217.44h30.71c5.67,0,7.81,3.44,7.81,6.59,0,3.7-.59,5.34-2.77,7.1,2.9,1,4.28,3.19,4.28,7,0,4.79-2.43,7.86-9.45,7.86H403.94Zm12.35,11.38h13.32a1.39,1.39,0,0,0,0-2.77c-1.89,0-8.7,0-13.32,0Zm0,8.57h14.37a1.37,1.37,0,1,0,0-2.73H416.29Z" transform="translate(-76.87 -216.85)"/><path class="cls-1" d="M105.83,298,97,288.51l-5.92,4.95V298H78.74V269.44H91.05V281l13.56-11.51,6.77,0,8.48,0L104.78,282l15.55,16Z" transform="translate(-76.87 -216.85)"/><path class="cls-1" d="M122.33,269.44h35.5v8.44H134.64v2.52h21.22v6.68H134.64v2.48h23.19V298h-35.5Z" transform="translate(-76.87 -216.85)"/><path class="cls-1" d="M160.81,269.44H196.3v8.44H173.11v2.52h21.22v6.68H173.11v2.48H196.3V298H160.81Z" transform="translate(-76.87 -216.85)"/><path class="cls-1" d="M211.63,298H199.28V269.44h25.5c7.18,0,14.28.33,14.28,10.79S232,291,224.78,291H211.63Zm0-16.09h12.81c3.19,0,3.86-.08,3.86-1.68s-.67-1.72-3.86-1.72H211.63Z" transform="translate(-76.87 -216.85)"/><path class="cls-1" d="M272.27,268.85h12.78c8.4,0,13.4,4.07,14.11,10.71H288.57c-.46-1-1-1.68-4.74-1.68h-9.54c-3.19,0-5.17,2-5.17,5.84s2,5.84,5.17,5.84h8c1.52,0,4.37-.51,5.55-2.19H278.7v-6.05h20.5V298h-7.77l-1.13-3.15c-1.39,2.18-4.5,3.78-9.08,3.78h-9c-7.18,0-14.28-4.33-14.28-14.91C258,273.59,265.09,268.85,272.27,268.85Z" transform="translate(-76.87 -216.85)"/><path class="cls-1" d="M331.16,298.63H316.33c-7.18,0-13.86-4.75-13.86-14.91s6.68-14.87,13.86-14.87h14.83c7.18,0,13.65,4.74,13.65,14.87S338.34,298.63,331.16,298.63ZM328.73,290c3.19,0,5.37-1.14,5.37-6.26s-2.18-6.26-5.37-6.26h-10c-3.19,0-5.55,1.17-5.55,6.26s1.94,6.26,5.55,6.26Z" transform="translate(-76.87 -216.85)"/><path class="cls-1" d="M347.66,269.44H360V298H347.66Z" transform="translate(-76.87 -216.85)"/><path class="cls-1" d="M375.55,298H363.24V269.44h13.87l15.41,14.61V269.44h12.35V298H392l-16.43-16.63Z" transform="translate(-76.87 -216.85)"/><path class="cls-1" d="M422,268.85h12.78c8.4,0,13.4,4.07,14.11,10.71H438.3c-.46-1-1-1.68-4.74-1.68H424c-3.19,0-5.17,2-5.17,5.84s2,5.84,5.17,5.84h8c1.52,0,4.37-.51,5.55-2.19h-9.16v-6.05h20.5V298h-7.77L440,294.85c-1.39,2.18-4.5,3.78-9.08,3.78H422c-7.18,0-14.28-4.33-14.28-14.91C407.72,273.59,414.82,268.85,422,268.85Z" transform="translate(-76.87 -216.85)"/><rect class="cls-1" x="8.34" y="32.47" width="353.62" height="16.6"/><circle class="cls-1" cx="8.34" cy="40.77" r="8.34"/><circle class="cls-1" cx="361.96" cy="40.77" r="8.34"/><rect class="cls-2" x="8.72" y="35.08" width="242.66" height="11.39"/><circle class="cls-2" cx="8.72" cy="40.77" r="5.72"/><circle class="cls-2" cx="251.38" cy="40.77" r="5.72"/><path class="cls-1" d="M84,259v-2.5a1.82,1.82,0,0,1,1.84-1.91h2a1.82,1.82,0,0,1,1.84,1.91V259a1.82,1.82,0,0,1-1.84,1.92h-2A1.83,1.83,0,0,1,84,259Zm4-.1v-2.31c0-.4-.18-.72-.65-.72h-1c-.47,0-.65.32-.65.72v2.31c0,.4.18.72.65.72h1C87.82,259.6,88,259.28,88,258.88Z" transform="translate(-76.87 -216.85)"/><path class="cls-1" d="M93.49,255.62v1.26A1,1,0,0,1,92.38,258h-.8a1,1,0,0,1-1.11-1.08v-1.26a1,1,0,0,1,1.11-1.05h.8A1,1,0,0,1,93.49,255.62Zm-.94,1.11v-1c0-.31-.08-.43-.42-.43h-.3c-.34,0-.41.12-.41.43v1c0,.31.07.43.41.43h.3C92.47,257.16,92.55,257,92.55,256.73Zm3.74-2.24.58.51-4.77,5.91-.58-.52Zm1.63,4.07v1.26a1,1,0,0,1-1.12,1.08H96a1,1,0,0,1-1.11-1.08v-1.26A1,1,0,0,1,96,257.5h.8A1,1,0,0,1,97.92,258.56Zm-1,1.1v-1c0-.3-.08-.42-.42-.42h-.3c-.34,0-.41.12-.41.42v1c0,.32.07.44.41.44h.3C96.89,260.1,97,260,97,259.66Z" transform="translate(-76.87 -216.85)"/><path class="cls-2" d="M407.94,254.42l2.68-1.08h1.81v6.56h1.44v1.84h-5.59V259.9h2v-4.46l-1.78.49Z" transform="translate(-76.87 -216.85)"/><path class="cls-2" d="M414.75,259.21v-3.34a2.43,2.43,0,0,1,2.44-2.54h2.59a2.42,2.42,0,0,1,2.45,2.54v3.34a2.42,2.42,0,0,1-2.45,2.54h-2.59A2.43,2.43,0,0,1,414.75,259.21Zm5.3-.15V256c0-.52-.24-1-.87-1H417.8c-.62,0-.86.44-.86,1v3.07c0,.54.24,1,.86,1h1.38C419.81,260,420.05,259.6,420.05,259.06Z" transform="translate(-76.87 -216.85)"/><path class="cls-2" d="M423.36,259.21v-3.34a2.43,2.43,0,0,1,2.45-2.54h2.59a2.42,2.42,0,0,1,2.45,2.54v3.34a2.42,2.42,0,0,1-2.45,2.54h-2.59A2.43,2.43,0,0,1,423.36,259.21Zm5.3-.15V256c0-.52-.24-1-.86-1h-1.38c-.62,0-.86.44-.86,1v3.07c0,.54.24,1,.86,1h1.38C428.42,260,428.66,259.6,428.66,259.06Z" transform="translate(-76.87 -216.85)"/><path class="cls-2" d="M436,254.73v1.68a1.31,1.31,0,0,1-1.47,1.43h-1.07a1.32,1.32,0,0,1-1.48-1.43v-1.68a1.3,1.3,0,0,1,1.48-1.4h1.07A1.29,1.29,0,0,1,436,254.73Zm-1.26,1.48V255c0-.42-.09-.58-.55-.58h-.4c-.45,0-.55.16-.55.58v1.26c0,.41.1.57.55.57h.4C434.62,256.78,434.71,256.62,434.71,256.21Zm5-3,.78.68-6.34,7.85-.78-.68Zm2.17,5.41v1.68a1.33,1.33,0,0,1-1.49,1.43h-1.06a1.32,1.32,0,0,1-1.48-1.43v-1.68a1.31,1.31,0,0,1,1.48-1.41h1.06A1.31,1.31,0,0,1,441.86,258.64Zm-1.26,1.47v-1.26c0-.41-.11-.57-.56-.57h-.4c-.45,0-.55.16-.55.57v1.26c0,.42.1.58.55.58h.4C440.49,260.69,440.6,260.53,440.6,260.11Z" transform="translate(-76.87 -216.85)"/></svg>